<svg width="100" height="45" viewBox="0 0 100 45" fill="none" xmlns="http://www.w3.org/2000/svg">
<path d="M12.6651 36.5674C10.4945 36.5674 8.51936 36.0573 6.73951 35.0372C4.98137 33.9953 3.58137 32.5845 2.53951 30.8046C1.51936 29.0031 1.00928 27.0171 1.00928 24.8465C1.00928 22.6326 1.5085 20.6357 2.50695 18.8558C3.5054 17.0759 4.87285 15.6869 6.60928 14.6884C8.34571 13.6683 10.2992 13.1581 12.4697 13.1581C13.6418 13.1581 14.7922 13.2992 15.9209 13.5814C17.0496 13.8636 18.0154 14.2651 18.8186 14.786L17.9395 19.8326C16.3767 19.2465 14.9659 18.9535 13.707 18.9535C11.9706 18.9535 10.6356 19.4636 9.7023 20.4837C8.76896 21.4822 8.3023 22.9256 8.3023 24.8139C8.3023 26.659 8.79067 28.1023 9.76742 29.1442C10.7659 30.1643 12.1442 30.6744 13.9023 30.6744C14.5752 30.6744 15.2046 30.6093 15.7907 30.4791C16.3767 30.3488 17.093 30.1101 17.9395 29.7628L18.8511 34.907C16.9628 36.014 14.9008 36.5674 12.6651 36.5674ZM7.58602 7.72093L17.1256 1.04651L20.4139 6.87442L9.57207 11.2046L7.58602 7.72093ZM28.1864 36.307C26.7756 36.307 25.4515 35.938 24.2143 35.2C22.9988 34.4403 22.0221 33.4201 21.284 32.1395C20.5461 30.8372 20.1771 29.3938 20.1771 27.8093C20.1771 26.2465 20.5461 24.8357 21.284 23.5767C22.0221 22.2962 23.0096 21.2977 24.2468 20.5814C25.484 19.8651 26.7973 19.507 28.1864 19.507C29.3151 19.507 30.357 19.8217 31.312 20.4512C32.2887 21.0806 33.0267 22.0248 33.5259 23.2837V19.507H40.3631V36.0465H33.5259V33.0186C32.4407 35.2108 30.6608 36.307 28.1864 36.307ZM30.3026 31.1628C31.1709 31.1628 31.9089 30.859 32.5166 30.2512C33.1461 29.6217 33.4825 28.8837 33.5259 28.0372V27.7767C33.4825 26.9085 33.1352 26.1706 32.484 25.5628C31.8546 24.955 31.1275 24.6512 30.3026 24.6512C29.391 24.6512 28.6096 24.9767 27.9585 25.6279C27.329 26.2573 27.0143 27.0171 27.0143 27.907C27.0143 28.8186 27.3399 29.5892 27.991 30.2186C28.6422 30.848 29.4128 31.1628 30.3026 31.1628ZM51.7028 36.307C49.9664 36.307 48.4253 35.9596 47.0795 35.2651C45.7556 34.5488 44.7137 33.5503 43.9539 32.2698C43.216 30.9892 42.847 29.5349 42.847 27.907C42.847 26.3442 43.2376 24.9224 44.019 23.6419C44.8004 22.3613 45.864 21.352 47.2097 20.614C48.5556 19.8759 50.0532 19.507 51.7028 19.507C53.8082 19.507 55.4687 19.941 56.6842 20.8093L56.0656 25.1395C54.8283 24.7706 53.8082 24.586 53.0051 24.586C51.9632 24.586 51.1385 24.8899 50.5307 25.4977C49.923 26.0837 49.619 26.8869 49.619 27.907C49.619 28.9271 49.923 29.741 50.5307 30.3488C51.1385 30.9566 51.9416 31.2605 52.94 31.2605C53.8082 31.2605 54.8283 31.0759 56.0004 30.707L56.619 35.2651C55.8811 35.6341 55.1323 35.8945 54.3725 36.0465C53.6129 36.2201 52.723 36.307 51.7028 36.307ZM59.018 14.5907L65.8878 13.5814V23.0884C66.3652 21.938 67.0815 21.059 68.0366 20.4512C69.0133 19.8217 70.1854 19.507 71.5529 19.507C73.6366 19.507 75.2645 20.2558 76.4366 21.7535C77.6303 23.2294 78.2273 25.2806 78.2273 27.907V36.0465H71.3901V27.2233C71.3901 26.2899 71.1838 25.5736 70.7715 25.0744C70.3808 24.5752 69.8273 24.3256 69.111 24.3256C68.5901 24.3256 68.08 24.4992 67.5808 24.8465C67.0815 25.1721 66.6692 25.6496 66.3436 26.2791C66.0396 26.9085 65.8878 27.6248 65.8878 28.4279V36.0465H59.018V14.5907ZM89.9032 43.5023C88.7094 43.5023 87.5699 43.3829 86.4846 43.1442L87.0056 38.3256C87.8521 38.4558 88.6335 38.5209 89.3497 38.5209C90.6303 38.5209 91.6071 38.1302 92.28 37.3488C92.9528 36.5892 93.3001 35.1457 93.3218 33.0186C92.1931 35.1892 90.3807 36.2744 87.8846 36.2744C85.7792 36.2744 84.1295 35.5364 82.9358 34.0605C81.7637 32.5628 81.1777 30.5008 81.1777 27.8744V19.7349H88.0149V28.8837C88.0149 29.6217 88.221 30.2403 88.6335 30.7395C89.0458 31.2171 89.6102 31.4558 90.3265 31.4558C91.0644 31.4558 91.6614 31.141 92.1172 30.5116C92.5946 29.8822 92.8335 29.0573 92.8335 28.0372V19.7349H99.7032V31.9116C99.7032 35.6884 98.8567 38.5643 97.1637 40.5395C95.4707 42.5148 93.0504 43.5023 89.9032 43.5023Z" fill="white"/>
</svg>
