<svg width="292" height="292" viewBox="0 0 292 292" fill="none" xmlns="http://www.w3.org/2000/svg">
<path d="M145.66 0C225.773 0 291.32 65.547 291.32 145.66C291.32 225.773 225.773 291.32 145.66 291.32C65.547 291.32 0 225.772 0 145.66C0 65.548 65.547 0 145.66 0Z" fill="#DD4B39"/>
<path d="M219.4 121.079V137.466H235.786V153.853H219.4V170.24H203.013V153.853H186.626V137.466H203.013V121.079H219.4Z" fill="white"/>
<path d="M71.919 186.626C50.07 164.777 50.07 126.541 72.829 104.693C89.216 88.306 112.885 84.665 133.824 92.858L142.017 97.41L151.121 103.783L136.555 118.349L131.093 114.708C118.348 106.515 100.14 108.335 88.306 120.17C74.65 133.826 73.74 158.406 88.306 172.972C101.962 187.538 126.542 187.538 139.287 172.972C142.928 169.331 146.57 163.868 147.48 158.406V156.585H114.707V138.378H166.598L167.508 142.93V155.675C166.598 167.51 162.046 179.345 153.852 187.538C132.004 208.475 93.768 208.475 71.919 186.626Z" fill="white"/>
</svg>
