<svg width="66" height="66" viewBox="0 0 66 66" fill="none" xmlns="http://www.w3.org/2000/svg">
<g clip-path="url(#clip0)">
<path d="M33 66C51.2254 66 66 51.2254 66 33C66 14.7746 51.2254 0 33 0C14.7746 0 0 14.7746 0 33C0 51.2254 14.7746 66 33 66Z" fill="#FFD93B"/>
<path d="M66 33C66 51.2325 51.2222 66 33 66C22.6256 66 13.365 61.215 7.31158 53.7178C12.9731 58.2966 20.1816 61.0294 28.0294 61.0294C46.2516 61.0294 61.0294 46.2619 61.0294 28.0294C61.0294 20.1816 58.2966 12.9731 53.7178 7.31155C61.2047 13.365 66 22.6256 66 33Z" fill="#F4C534"/>
<path d="M29.9392 25.9483C29.9392 32.2885 20.361 38.0882 20.361 38.0882C20.361 38.0882 10.7827 32.2885 10.7827 25.9483C10.7827 23.2403 12.9711 21.054 15.6771 21.054C17.8922 21.054 19.7505 22.5163 20.3672 24.5128C20.9694 22.5163 22.8277 21.054 25.0429 21.054C27.7365 21.054 29.9392 23.2423 29.9392 25.9483Z" fill="#E24B4B"/>
<path d="M12.3936 22.341C11.4098 23.2361 10.7848 24.5128 10.7848 25.9504C10.7848 32.2905 20.3631 38.0902 20.3631 38.0902C10.3331 29.6196 12.3193 22.5864 12.3936 22.341Z" fill="#D03F3F"/>
<path d="M27.7406 25.7854C27.2745 26.1628 26.4825 25.9112 25.9627 25.2471C25.4244 24.5829 25.3687 23.7744 25.8019 23.432C26.268 23.0732 27.06 23.3413 27.5983 24.0075C28.1181 24.6696 28.1902 25.478 27.7406 25.7854Z" fill="white"/>
<path d="M55.2173 25.9483C55.2173 32.2885 45.639 38.0882 45.639 38.0882C45.639 38.0882 36.0608 32.2885 36.0608 25.9483C36.0608 23.2403 38.2491 21.054 40.9551 21.054C43.1702 21.054 45.0285 22.5163 45.6452 24.5128C46.2474 22.5163 48.1058 21.054 50.3209 21.054C53.0145 21.054 55.2173 23.2423 55.2173 25.9483Z" fill="#E24B4B"/>
<path d="M37.6716 22.341C36.6877 23.2361 36.0628 24.5128 36.0628 25.9504C36.0628 32.2905 45.641 38.0902 45.641 38.0902C35.6111 29.6196 37.5973 22.5864 37.6716 22.341Z" fill="#D03F3F"/>
<path d="M53.0186 25.7854C52.5525 26.1628 51.7605 25.9112 51.2408 25.2471C50.7024 24.5829 50.6468 23.7744 51.0799 23.432C51.546 23.0732 52.338 23.3413 52.8763 24.0075C53.3961 24.6696 53.4683 25.478 53.0186 25.7854Z" fill="white"/>
<path d="M49.2071 48.2254C45.309 52.8454 39.4989 56.529 33.002 56.529C26.5052 56.529 20.7034 52.8454 16.7846 48.246C15.4234 46.6372 16.8052 44.1829 18.909 44.5541C28.1902 46.1835 37.5746 46.2041 47.1034 44.5335C49.1865 44.1829 50.589 46.6166 49.2071 48.2254Z" fill="#3E4347"/>
<path d="M33.0021 56.529C36.3165 56.529 39.4494 55.5617 42.2441 54.0086C41.0726 49.6629 36.9909 48.4254 34.1694 49.9249C30.3476 51.9647 26.0721 49.3247 24.4221 54.3469C27.0476 55.6916 29.9413 56.529 33.0021 56.529Z" fill="#E24B4B"/>
</g>
<defs>
<clipPath id="clip0">
<rect width="66" height="66" fill="white"/>
</clipPath>
</defs>
</svg>
