<svg width="113" height="113" viewBox="0 0 113 113" fill="none" xmlns="http://www.w3.org/2000/svg">
<path d="M56.098 112.196C87.0801 112.196 112.196 87.0801 112.196 56.098C112.196 25.1159 87.0801 0 56.098 0C25.1159 0 0 25.1159 0 56.098C0 87.0801 25.1159 112.196 56.098 112.196Z" fill="#55ACEE"/>
<path d="M90.46 40.316C88.056 41.382 85.47 42.103 82.758 42.425C85.527 40.766 87.652 38.141 88.655 35.008C86.064 36.545 83.193 37.66 80.14 38.261C77.694 35.656 74.209 34.028 70.35 34.028C62.946 34.028 56.941 40.033 56.941 47.437C56.941 48.488 57.06 49.511 57.29 50.493C46.146 49.934 36.265 44.596 29.651 36.481C28.497 38.461 27.835 40.766 27.835 43.223C27.835 47.874 30.204 51.98 33.8 54.384C31.603 54.315 29.534 53.712 27.727 52.705C27.726 52.762 27.726 52.819 27.726 52.875C27.726 59.372 32.35 64.791 38.483 66.022C37.359 66.33 36.172 66.493 34.951 66.493C34.085 66.493 33.246 66.41 32.428 66.254C34.134 71.58 39.085 75.457 44.954 75.566C40.364 79.163 34.583 81.306 28.299 81.306C27.219 81.306 26.149 81.243 25.102 81.118C31.033 84.924 38.083 87.143 45.655 87.143C70.319 87.143 83.807 66.711 83.807 48.99C83.807 48.409 83.794 47.83 83.768 47.256C86.39 45.366 88.663 43.005 90.46 40.316Z" fill="#F1F2F2"/>
</svg>
